<svg xmlns="http://www.w3.org/2000/svg" xmlns:xlink="http://www.w3.org/1999/xlink" viewBox="0 0 40 40"><path d="M 24 2.857 C 24 1.279 22.721 0 21.143 0 L 18.857 0 C 17.279 0 16 1.279 16 2.857 L 16 3.445 C 16 5.991 12.922 7.266 11.123 5.466 L 10.707 5.05 C 9.591 3.934 7.782 3.934 6.666 5.05 L 5.05 6.666 C 3.934 7.782 3.934 9.591 5.05 10.707 L 5.466 11.123 C 7.266 12.923 5.991 16 3.445 16 L 2.857 16 C 1.279 16 0 17.279 0 18.857 L 0 21.143 C 0 22.721 1.279 24 2.857 24 L 3.445 24 C 5.991 24 7.266 27.078 5.466 28.877 L 5.05 29.293 C 3.934 30.409 3.934 32.218 5.05 33.334 L 6.666 34.95 C 7.782 36.066 9.591 36.066 10.707 34.95 L 11.123 34.534 C 12.923 32.734 16 34.009 16 36.555 L 16 37.143 C 16 38.721 17.279 40 18.857 40 L 21.143 40 C 22.721 40 24 38.721 24 37.143 L 24 36.555 C 24 34.009 27.078 32.734 28.877 34.534 L 29.293 34.95 C 30.409 36.066 32.218 36.066 33.334 34.95 L 34.95 33.334 C 36.066 32.218 36.066 30.409 34.95 29.293 L 34.534 28.877 C 32.734 27.078 34.009 24 36.555 24 L 37.143 24 C 38.721 24 40 22.721 40 21.143 L 40 18.857 C 40 17.279 38.721 16 37.143 16 L 36.555 16 C 34.009 16 32.734 12.922 34.534 11.123 L 34.95 10.707 C 36.066 9.591 36.066 7.782 34.95 6.666 L 33.334 5.05 C 32.218 3.934 30.409 3.934 29.293 5.05 L 28.877 5.466 C 27.078 7.265 24 5.991 24 3.445 L 24 2.857 Z" fill="#333333"></path></svg>